<svg width="42" height="42" viewBox="0 0 42 42" fill="none" xmlns="http://www.w3.org/2000/svg">
<path d="M10.3267 19.2809C10.6956 16.4841 13.1678 13.9526 17.69 11.7466L18.5044 11.3493L15.1658 5.18552L14.4121 5.56754C4.84895 10.4152 0 17.266 0 25.93C0 28.9194 0.948937 31.5012 2.82064 33.604C4.7186 35.7361 7.02188 36.8172 9.66697 36.8172C12.0437 36.8172 14.059 35.9709 15.657 34.3014C17.2445 32.6428 18.0495 30.5826 18.0495 28.1779C18.0495 25.9056 17.2364 23.8806 15.6328 22.1591C14.2184 20.6406 12.4362 19.6747 10.3267 19.2809ZM14.4022 33.1004C13.127 34.4327 11.5781 35.0802 9.66697 35.0802C7.50914 35.0802 5.69412 34.2196 4.11821 32.4491C2.51582 30.649 1.73685 28.5166 1.73685 25.9299C1.73685 21.959 2.85502 18.374 5.0601 15.2746C7.16412 12.3175 10.3199 9.70667 14.4478 7.50626L16.1203 10.5941C11.0901 13.2301 8.5415 16.3988 8.5415 20.0214V20.7971L9.31219 20.8844C11.3882 21.1194 13.0398 21.9236 14.3619 23.3429C15.6744 24.752 16.3126 26.3337 16.3126 28.1778C16.3127 30.1472 15.6877 31.7573 14.4022 33.1004Z" fill="#8643DC"/>
<path d="M33.8958 19.2834C34.2603 16.4843 36.7122 13.9515 41.1981 11.7453L42 11.3509L38.7443 5.18268L37.9832 5.56675C28.3763 10.4141 23.5053 17.2653 23.5053 25.9299C23.5053 28.9212 24.4664 31.5045 26.3617 33.6078C28.2807 35.7373 30.5935 36.817 33.2364 36.817C35.6161 36.817 37.6222 35.9691 39.1989 34.2966C40.7621 32.6386 41.5547 30.58 41.5547 28.1778C41.5547 25.9054 40.7416 23.8804 39.1382 22.159C37.7267 20.6438 35.9659 19.6787 33.8958 19.2834ZM37.9353 33.1051C36.6821 34.4342 35.1452 35.0803 33.2364 35.0803C31.0765 35.0803 29.2498 34.2184 27.652 32.4452C26.0303 30.6456 25.2421 28.5145 25.2421 25.9299C25.2421 21.9597 26.3653 18.3753 28.5802 15.2762C30.6936 12.3197 33.8629 9.70933 38.0084 7.50917L39.6355 10.5922C34.6416 13.2291 32.1112 16.3985 32.1112 20.0215V20.7954L32.8799 20.8842C34.9133 21.1189 36.5446 21.9231 37.8673 23.3429C39.1799 24.752 39.8179 26.3334 39.8179 28.1778C39.818 30.1497 39.2021 31.7615 37.9353 33.1051Z" fill="#8643DC"/>
</svg>
